<svg width="42" height="44" viewBox="0 0 42 44" fill="none" xmlns="http://www.w3.org/2000/svg">
<path d="M32.5125 19.8522C32.3548 19.2671 32.2699 18.6487 32.2658 18.0096C32.2496 16.171 33.3092 14.4529 34.7812 13.9216C35.5213 13.656 36.4474 13.7598 37.1996 14.1997C37.8467 14.5774 38.2713 15.1293 38.3967 15.7602C38.5827 16.6981 38.1419 17.8269 37.3007 18.574C36.318 19.4414 34.9834 19.7402 34.0412 19.8315C33.5397 19.8813 33.0301 19.8896 32.5165 19.8522M23.6276 7.99522C24.1048 5.56738 25.6496 4.19782 26.9397 4.19782C26.9963 4.19782 27.057 4.19782 27.1136 4.20612C28.343 4.32648 29.6007 5.87864 29.443 7.76696C29.3136 9.27762 28.4805 10.8215 26.8224 12.6226C26.143 13.3614 25.411 14.0669 24.6386 14.7268C23.5669 12.6891 23.1827 10.2654 23.6276 7.99522ZM23.753 28.0654C22.6085 28.4763 21.5044 29.0033 20.457 29.6466C19.6644 28.6672 18.7342 27.8039 17.6989 27.1109C16.2309 26.1314 14.5405 25.4757 12.7651 25.1893C12.8056 24.3386 12.7853 23.4795 12.7045 22.6245C15.0743 22.1805 17.4037 21.4168 19.6077 20.371C20.8048 23.0312 22.1879 25.6043 23.757 28.0654M18.9728 41.9518C18.2408 42.0514 17.6464 41.6904 17.2743 41.3708C16.5625 40.7566 16.0975 39.8021 16.0611 38.8807C15.9802 36.8803 17.2783 35.0667 18.3824 33.8964C18.8717 33.3776 19.4055 32.8879 19.9717 32.4397C20.8008 33.8798 21.3225 35.5066 21.4478 37.1667C21.6096 39.2916 20.7077 41.7236 18.9728 41.9601M9.32763 30.8917C8.70888 32.1616 8.02947 33.029 7.253 33.5436C6.38756 34.1163 5.31992 34.2159 4.60007 33.7926C3.53242 33.1659 3.35044 31.5017 3.85595 30.3978C4.57176 28.829 6.27837 28.0156 7.22874 27.6711C8.28021 27.2893 9.42064 27.0818 10.5692 27.0652C10.3306 28.3974 9.91403 29.6923 9.32763 30.8917ZM9.02432 21.035C6.64234 21.1554 4.95595 20.8234 3.71845 19.985C2.4486 19.1259 1.54677 17.2584 2.23022 15.8556C2.63463 15.0214 3.69823 14.3948 4.90742 14.3948C5.37654 14.3948 5.86992 14.4902 6.35117 14.7019C8.14271 15.4946 9.20631 17.3953 9.78057 18.8479C10.0434 19.5161 10.2618 20.2091 10.4236 20.9188C9.95851 20.9686 9.48939 21.006 9.02028 21.0309M31.9423 29.2689C33.2647 29.4889 34.207 29.85 34.8985 30.4019C35.675 31.0203 36.1077 31.9375 35.9945 32.7343C35.9015 33.4067 35.4445 33.8383 35.0805 34.0873C34.3243 34.5936 33.2809 34.7638 32.4154 34.5189C30.725 34.0416 29.3945 32.531 28.2055 30.9747C27.789 30.431 27.3805 29.8707 26.9802 29.3063C28.6261 29.0199 30.3085 28.9992 31.9423 29.2731M12.6681 10.7841C11.467 10.9169 10.371 10.6721 9.58241 10.0994C8.7655 9.50588 8.29638 8.48079 8.44601 7.61341C8.65226 6.40571 9.96255 5.65038 11.1515 5.65038C11.2809 5.65038 11.4103 5.65868 11.5357 5.67943C12.8824 5.87864 14.1846 6.90373 15.1107 8.48494C15.325 8.85015 15.5151 9.23197 15.685 9.62623C14.775 10.2654 13.7236 10.6679 12.664 10.7883M40.4915 25.704C37.3492 25.4591 34.8176 24.0273 33.4305 21.9066C33.6974 21.8983 33.9643 21.8817 34.2272 21.8568C35.9864 21.6783 37.4948 21.0765 38.5827 20.1178C39.9739 18.8894 40.6573 17.0218 40.3257 15.3618C40.0871 14.1665 39.3026 13.0999 38.1662 12.44C36.9125 11.7096 35.4 11.5519 34.118 12.0126C31.8371 12.8343 30.2599 15.3078 30.2801 18.0303C30.2801 18.52 30.3246 18.9973 30.3974 19.4663C28.6746 18.9433 27.0893 17.9473 25.9166 16.611C25.8599 16.5445 25.8033 16.4781 25.7467 16.4117C26.6324 15.6647 27.4695 14.8637 28.246 14.0213C29.4956 12.6683 31.182 10.5642 31.4004 7.94542C31.6147 5.43457 29.9768 2.45476 27.2916 2.18915C24.3919 1.90278 22.2364 4.76224 21.6783 7.5968C21.1202 10.4314 21.6419 13.4693 23.0452 15.9801C22.2486 16.5653 21.4155 17.1007 20.5622 17.5904C19.9394 16.0631 19.3813 14.5068 18.8879 12.9298C18.807 12.6725 18.7261 12.411 18.6493 12.1495C18.4552 11.5187 18.2611 10.8754 18.0427 10.2405C18.5522 9.71754 18.989 9.14066 19.3489 8.51399C20.6997 6.16085 20.8938 3.13538 19.8544 0.620384C19.6401 0.105764 19.0618 -0.139095 18.5603 0.0808634C18.0589 0.300822 17.8243 0.894295 18.0346 1.40891C18.8313 3.34289 18.6816 5.67113 17.6464 7.48475C17.5089 7.72131 17.3592 7.95372 17.1894 8.17368C17.0681 7.92467 16.9386 7.67981 16.7971 7.4391C15.5636 5.33082 13.7478 3.95711 11.8107 3.67075C10.6905 3.50475 9.48131 3.76621 8.48646 4.39288C7.39859 5.07766 6.69087 6.0986 6.48867 7.26479C6.20962 8.90411 6.99014 10.7094 8.43388 11.7594C9.61476 12.6185 11.192 12.9879 12.8703 12.8053C14.0997 12.6683 15.3129 12.2408 16.3927 11.5685C16.5181 11.9586 16.6394 12.357 16.7607 12.7596C16.8416 13.0252 16.9225 13.2908 17.0033 13.5523C17.5291 15.2372 18.1276 16.8932 18.7908 18.52C16.7405 19.4995 14.5769 20.2133 12.3728 20.6283C12.1787 19.7526 11.9199 18.9018 11.5964 18.0843C10.8806 16.2789 9.52175 13.905 7.1155 12.8426C4.87102 11.8507 1.65596 12.4608 0.442726 14.9509C-0.107272 16.0839 -0.147713 17.4285 0.33758 18.7441C0.766255 19.9228 1.59934 20.9894 2.61441 21.6783C4.34125 22.8486 6.3997 23.0894 8.06587 23.0894C8.43388 23.0894 8.78572 23.0769 9.10925 23.0603C9.65116 23.0312 10.1931 22.9856 10.7309 22.9233C10.7956 23.6247 10.8118 24.3302 10.7795 25.0316C10.7673 25.0316 10.7512 25.0316 10.735 25.0316C9.29528 25.0316 7.86771 25.2765 6.54933 25.7538C4.40191 26.534 2.80044 27.8745 2.04419 29.5346C1.03317 31.7507 1.72875 34.4483 3.59713 35.5481C4.1997 35.9009 4.89529 36.0794 5.61514 36.0794C6.52506 36.0794 7.47138 35.7971 8.30851 35.2452C9.39234 34.5272 10.2982 33.3984 11.0828 31.7964C11.7824 30.3604 12.2677 28.8083 12.5346 27.2146C14.0026 27.4636 15.3938 28.0073 16.607 28.8166C17.4239 29.3602 18.164 30.0326 18.803 30.792C18.1397 31.315 17.5169 31.8794 16.9467 32.4853C15.5758 33.942 13.9622 36.2454 14.0714 38.9679C14.132 40.4661 14.8478 41.9435 15.9883 42.9271C16.8011 43.6285 17.7555 44.002 18.718 44.002C18.8839 44.002 19.0497 43.9896 19.2155 43.9688C22.1394 43.5745 23.6397 40.1216 23.4052 37.009C23.2555 35.0045 22.6125 33.0414 21.5975 31.3108C22.6408 30.6841 23.7489 30.182 24.8934 29.8168C25.4555 30.6343 26.0379 31.4395 26.6364 32.2239C28.0357 34.0582 29.6371 35.8386 31.8776 36.4736C32.3103 36.5981 32.7673 36.6562 33.2243 36.6562C34.2555 36.6562 35.2989 36.3533 36.1481 35.7847C37.147 35.1124 37.782 34.1329 37.9397 33.0248C38.154 31.4934 37.4504 29.879 36.0996 28.8C35.1331 28.0322 33.9118 27.5425 32.2456 27.2686C30.0982 26.9116 27.8779 26.9988 25.7346 27.4885C24.0644 24.9279 22.6044 22.2469 21.3548 19.4621C22.3254 18.9143 23.2677 18.3125 24.1735 17.6526C24.2625 17.7605 24.3515 17.8726 24.4445 17.9764C26.1309 19.8937 28.5129 21.2342 31.0445 21.7157C32.5044 25.0648 35.9298 27.3848 40.3338 27.7292C40.3581 27.7292 40.3864 27.7292 40.4106 27.7292C40.9242 27.7292 41.357 27.3225 41.3974 26.7913C41.4378 26.231 41.0294 25.7455 40.4875 25.704" fill="#E8373D"/>
</svg>
